<?xml version="1.0" encoding="UTF-8"?>
<svg width="400" height="400" viewBox="0 0 400 400" fill="none" xmlns="http://www.w3.org/2000/svg">
  <!-- Background elements -->
  <circle cx="200" cy="200" r="150" fill="#F3F4F6" opacity="0.5"/>
  <circle cx="200" cy="200" r="120" fill="#E5E7EB" opacity="0.3"/>
  
  <!-- Document with missing page -->
  <rect x="120" y="100" width="160" height="200" rx="8" fill="white" stroke="#D1D5DB" stroke-width="3"/>
  <rect x="140" y="120" width="120" height="10" rx="2" fill="#1EB53A" opacity="0.7"/>
  <rect x="140" y="140" width="80" height="10" rx="2" fill="#6B7280" opacity="0.5"/>
  <rect x="140" y="160" width="100" height="10" rx="2" fill="#6B7280" opacity="0.5"/>
  <rect x="140" y="180" width="90" height="10" rx="2" fill="#6B7280" opacity="0.5"/>
  
  <!-- Missing page (with Kenyan flag colors) -->
  <path d="M170 200 L250 140 L250 260 L170 200Z" fill="#F3F4F6"/>
  <path d="M170 200 L210 180 L210 220 L170 200Z" fill="#1EB53A"/>
  <path d="M210 180 L230 170 L230 210 L210 220 L210 180Z" fill="black"/>
  <path d="M230 170 L250 160 L250 200 L230 210 L230 170Z" fill="#CE1126"/>
  
  <!-- Magnifying glass -->
  <circle cx="260" cy="240" r="40" fill="#1EB53A" opacity="0.1" stroke="#0A7B24" stroke-width="3"/>
  <circle cx="260" cy="240" r="30" fill="white" stroke="#0A7B24" stroke-width="3"/>
  <line x1="290" y1="270" x2="310" y2="290" stroke="#0A7B24" stroke-width="6" stroke-linecap="round"/>
  
  <!-- Question marks -->
  <text x="150" y="250" font-family="Arial" font-size="24" font-weight="bold" fill="#0A7B24">?</text>
  <text x="180" y="230" font-family="Arial" font-size="18" font-weight="bold" fill="#1EB53A">?</text>
  <text x="200" y="260" font-family="Arial" font-size="20" font-weight="bold" fill="#0A7B24">?</text>
</svg>
